<svg xmlns="http://www.w3.org/2000/svg" width="141" height="97" viewBox="0 0 141 97">
    <defs>
        <linearGradient id="prefix__a" x1="100%" x2="0%" y1="0%" y2="100%">
            <stop offset="0%" stop-color="#C07CFF"/>
            <stop offset="100%" stop-color="#8C46FF"/>
        </linearGradient>
    </defs>
    <g fill="none" fill-rule="evenodd">
        <path fill="#8C46FF" fill-rule="nonzero" d="M3.333 96.467l1.307-3.76h7.947l1.306 3.76H17.2L10.453 77.8h-3.68L0 96.467h3.333zm8.24-6.64h-5.92l2.96-8.427 2.96 8.427zm10.32 6.64V89c0-1.156.276-2.031.827-2.627.551-.595 1.262-.893 2.133-.893.8 0 1.418.253 1.854.76.435.507.653 1.222.653 2.147v8.08h2.88V89c0-1.173.262-2.053.787-2.64.524-.587 1.23-.88 2.12-.88.8 0 1.43.253 1.893.76.462.507.693 1.222.693 2.147v8.08h2.88V88.2c0-1.653-.462-2.969-1.386-3.947-.925-.977-2.143-1.466-3.654-1.466-1.83 0-3.19.702-4.08 2.106-.817-1.404-2.08-2.106-3.786-2.106-1.69 0-2.96.649-3.814 1.946v-1.6h-2.88v13.334h2.88zm21.254-15.334c.497 0 .924-.177 1.28-.533.373-.373.56-.809.56-1.307 0-.497-.178-.929-.534-1.293-.355-.364-.79-.547-1.306-.547s-.951.183-1.307.547c-.356.364-.533.796-.533 1.293 0 .498.182.93.546 1.294.365.364.796.546 1.294.546zm1.44 15.334V83.133h-2.88v13.334h2.88zm6.213 0v-6.72c0-1.37.409-2.351 1.227-2.947.817-.596 1.777-.858 2.88-.787v-3.12c-2.01 0-3.378.827-4.107 2.48v-2.24h-2.88v13.334h2.88zm20.587 0L75.36 82.84l3.947 13.627h3.546l5.28-18.667h-3.226l-3.92 14.587L76.773 77.8h-2.826l-4.24 14.587-3.92-14.587H62.56l5.28 18.667h3.547zm23.253.346c2.027 0 3.582-.755 4.667-2.266v1.92h2.88V83.133h-2.88v1.894c-1.085-1.494-2.64-2.24-4.667-2.24-1.831 0-3.396.675-4.693 2.026C88.649 86.164 88 87.827 88 89.8c0 1.956.649 3.613 1.947 4.973 1.297 1.36 2.862 2.04 4.693 2.04zm.453-2.746c-1.209 0-2.213-.4-3.013-1.2-.8-.818-1.2-1.84-1.2-3.067s.4-2.244 1.2-3.053c.8-.81 1.804-1.214 3.013-1.214 1.21 0 2.214.405 3.014 1.214.8.809 1.2 1.826 1.2 3.053 0 1.227-.4 2.244-1.2 3.053-.8.81-1.805 1.214-3.014 1.214zm13.334 2.4V77h-2.88v19.467h2.88zm6.213 0V77h-2.88v19.467h2.88zm9.84.346c2.578 0 4.524-.969 5.84-2.906l-2.373-1.387c-.765 1.102-1.911 1.653-3.44 1.653-1.103 0-2.036-.27-2.8-.813-.765-.542-1.254-1.32-1.467-2.333h10.613c.071-.498.107-.898.107-1.2 0-1.956-.627-3.618-1.88-4.987-1.253-1.369-2.858-2.053-4.813-2.053-2.063 0-3.751.67-5.067 2.013-1.316 1.342-1.973 3.009-1.973 5 0 2.027.666 3.702 2 5.027 1.333 1.324 3.084 1.986 5.253 1.986zm3.573-8.133h-7.84c.196-1.013.65-1.813 1.36-2.4.711-.587 1.6-.88 2.667-.88.942 0 1.764.276 2.467.827.702.55 1.15 1.369 1.346 2.453zm7.707 7.213c.96.65 2.542.84 4.747.574V93.88c-.73.036-1.338.04-1.827.013-.489-.026-.858-.16-1.107-.4-.249-.24-.373-.635-.373-1.186v-6.4h3.307v-2.774H137.2V79.4l-2.88.853v2.88h-2.453v2.774h2.453v6.4c0 1.742.48 2.937 1.44 3.586z"/>
        <g transform="translate(40)">
            <rect width="60" height="60" fill="url(#prefix__a)" rx="14"/>
            <g fill="#FFF">
                <path fill-rule="nonzero" d="M21.677 39.226v-1.278c-2.82-.273-3.153-.47-3.153-3.623V20.36c0-3.13.327-3.35 3.153-3.597v-1.28H10.323v1.28c2.82.248 3.204.468 3.204 3.597v13.957c0 3.153-.378 3.351-3.204 3.623v1.277l11.354.009z" transform="translate(14 11)"/>
                <path d="M15.485 0c.201 0 .383.147.46.372.076.225.032.483-.111.654-.143.171-.358.22-.543.125-.185-.095-.305-.316-.302-.559.003-.328.224-.592.496-.592zm2.063.348l-1.599 1.79 1.045 3.023-1.51-1.916-1.489 1.913 1.024-3.02-1.6-1.79 2.064 1.258L17.548.348z" transform="translate(14 11)"/>
                <path d="M11.412.35c.216-.065.452 0 .597.166.145.165.17.397.064.587-.107.19-.324.299-.549.277-.225-.022-.415-.17-.478-.377-.086-.276.077-.566.366-.653zM13.725 0L12.5 2.006l1.952 2.222-2.149-1.143-1.072 2.076.268-2.865-2.209-1.01 2.563.418L13.725 0zM6.994 3.141c.266-.179.629-.114.815.146.138.193.144.449.015.648-.129.2-.367.302-.603.26-.236-.042-.422-.22-.472-.452-.05-.231.047-.469.245-.602zm2.223-1.076L8.644 4.55l2.71 1.739-2.55-.546-.396 2.514-.679-3.095-2.568-.385L7.89 4.43l1.327-2.365z" transform="translate(14 11)"/>
                <path d="M3.294 5.81c.198-.248.554-.288.8-.09.118.096.194.235.21.388.017.153-.026.306-.12.425-.199.248-.555.288-.801.09-.118-.096-.193-.235-.21-.388-.017-.152.027-.305.12-.425zm1.751-1.681l.19 2.56 3.023.885-2.527.217.36 2.532L4.56 7.54l-2.496.373 2.438-1.126.542-2.659zM1.538 10.213c.074-.204.257-.341.464-.346.206-.005.395.124.477.325.082.2.041.434-.103.59-.145.157-.365.205-.556.122-.255-.11-.38-.418-.282-.69zm1.057-1.955l.81 2.199 2.789-.046-2.087.88.95 2.128-2.003-2.029-2.022 1.01 1.78-1.654-.217-2.488z" transform="translate(14 11)"/>
                <path d="M.001 14.432c.016-.204.173-.378.398-.443.224-.064.472-.005.626.15.154.155.184.374.075.555-.108.181-.333.288-.569.27-.315-.024-.55-.26-.53-.532zm.529-2.045l1.594 1.714 3.037-.848-2.003 1.387 1.722 1.617-2.843-1.224-1.893 1.483 1.415-1.985-1.03-2.144zM.178 19.357c-.05-.234.035-.478.216-.617.182-.14.423-.146.611-.018.188.13.285.368.246.605-.04.236-.207.424-.425.474-.292.067-.58-.13-.648-.444zM0 16.891l1.985 1.48 2.467-1.855-1.36 2.158 2.07 1.318-2.95-.549-1.227 2.234.639-2.663L0 16.89zM1.937 24.131c-.12-.178-.102-.4.043-.563.146-.163.392-.234.621-.18.23.055.4.224.428.429.028.204-.09.403-.297.503-.135.067-.294.084-.443.049-.15-.036-.276-.121-.352-.238zm-.905-1.972l2.466.67 1.982-2.184-.761 2.134 2.507.52-3.186.353-.602 2.154-.125-2.349-2.28-1.298z" transform="translate(14 11)"/>
                <path d="M4.603 27.498c-.171-.16-.229-.406-.146-.624.083-.218.29-.365.524-.371.234-.006.448.13.543.343.094.213.05.462-.112.63-.219.226-.579.236-.809.022zm-1.506-1.881l2.537.024 1.13-2.931v2.53l2.526-.143-2.87 1.293.155 2.513-.901-2.513-2.577-.773zM9.013 30.182c-.188-.107-.301-.334-.287-.576.014-.241.153-.45.351-.526.199-.077.418-.007.555.176.137.184.164.444.07.66-.129.291-.435.41-.689.266zm-1.787-1.41l2.178-.746.191-3.252.67 2.512 2.122-.911-2.115 2.146.8 2.447-1.438-2.221-2.408.025zM20.58.348c.216.064.371.244.392.456.02.213-.097.417-.298.516-.2.099-.445.074-.62-.063-.173-.137-.242-.36-.174-.563.092-.277.405-.432.7-.346zm2.13.937l-2.22 1.008.292 2.868-1.1-2.08-2.134 1.145 1.938-2.222L18.256 0l1.879 1.702 2.575-.417zM24.997 3.133c.2.133.296.37.246.601-.05.23-.237.409-.474.451-.236.042-.475-.06-.605-.26-.13-.198-.123-.454.016-.646.186-.26.55-.324.817-.146zm1.842 1.634l-2.578.385-.66 3.106-.418-2.524-2.538.555 2.7-1.743-.577-2.481 1.333 2.36 2.738.342z" transform="translate(14 11)"/>
                <path d="M28.7 5.8c.095.12.14.272.123.425-.017.152-.093.291-.21.387-.247.197-.605.158-.803-.09-.095-.118-.14-.271-.123-.423.016-.153.092-.292.21-.387.247-.198.604-.158.803.089zm1.235 2.097l-2.505-.37-1.516 2.796.346-2.546-2.518-.194 3.02-.904.187-2.55.551 2.649 2.435 1.119zM30.473 10.22c.077.201.03.433-.118.585-.149.152-.37.195-.56.108-.19-.087-.31-.287-.307-.505.005-.218.134-.412.327-.49.26-.106.553.028.658.301zm.495 2.186l-2.024-1.022-2.018 2.035.96-2.142-2.08-.87 2.79.042.827-2.19-.23 2.483 1.775 1.664z" transform="translate(14 11)"/>
                <path d="M31.998 14.432c.02.203-.106.395-.318.487-.211.092-.467.065-.647-.068-.18-.132-.248-.345-.171-.537.076-.193.28-.326.518-.339.317-.016.592.187.618.457zm-.171 2.084l-1.881-1.498-2.87 1.22 1.755-1.623-1.992-1.374 3.035.848 1.62-1.702-1.061 2.135 1.394 1.994zM31.793 19.383c-.047.233-.22.413-.436.454-.218.041-.436-.063-.554-.265-.118-.202-.111-.461.016-.656.128-.195.352-.286.567-.232.29.073.47.384.407.699zm-.824 2.294L29.78 19.44l-2.942.522 2.076-1.305-1.325-2.14 2.423 1.853L32 16.933l-1.63 2.09.599 2.654zM30.032 24.144c-.117.18-.348.279-.583.252-.236-.026-.429-.173-.49-.372-.06-.2.024-.41.213-.534.19-.124.447-.136.651-.03.273.14.366.445.209.684zm-1.52 1.662l-.564-2.164-3.174-.371 2.516-.507-.73-2.119 1.946 2.184 2.462-.64-2.297 1.272-.16 2.345z" transform="translate(14 11)"/>
                <path d="M27.368 27.532c-.233.212-.592.198-.807-.033-.103-.11-.157-.259-.15-.41.005-.152.072-.294.183-.397.233-.212.592-.197.807.034.103.11.157.258.151.41-.006.151-.072.294-.184.396zm-1.988 1.371l.196-2.52-2.866-1.324 2.54.173.02-2.522 1.1 2.942 2.533.016-2.582.721-.941 2.514zM22.961 30.217c-.256.14-.562.015-.686-.281-.092-.22-.06-.481.08-.663.14-.182.36-.247.558-.166.198.08.334.293.345.536.01.243-.107.47-.297.574zm-2.07.75l.835-2.447-2.113-2.193 2.137.95.686-2.503.165 3.262 2.173.79-2.412-.067-1.472 2.209z" transform="translate(14 11)"/>
            </g>
        </g>
    </g>
</svg>
